<svg xmlns="http://www.w3.org/2000/svg" xmlns:xlink="http://www.w3.org/1999/xlink" width="400" zoomAndPan="magnify" viewBox="0 0 300 149.999998" height="200" preserveAspectRatio="xMidYMid meet" version="1.0"><defs><g/></defs><path fill="#000000" d="M 58.269531 48.34375 C 58.46875 48.324219 58.671875 48.3125 58.875 48.308594 C 59.078125 48.300781 59.28125 48.304688 59.480469 48.3125 C 59.683594 48.320312 59.886719 48.339844 60.089844 48.363281 C 60.289062 48.386719 60.488281 48.414062 60.691406 48.453125 C 60.890625 48.492188 61.085938 48.535156 61.285156 48.589844 C 61.480469 48.640625 61.675781 48.699219 61.867188 48.765625 C 62.0625 48.832031 62.25 48.90625 62.441406 48.984375 C 62.628906 49.0625 62.8125 49.148438 62.996094 49.242188 C 64.859375 50.1875 66.578125 52.003906 67.25 54.105469 C 67.328125 54.347656 67.40625 54.695312 67.261719 54.925781 C 66.804688 55.65625 60.820312 58.4375 59.636719 59.46875 C 59.539062 59.554688 59.457031 59.648438 59.378906 59.75 C 59.304688 59.855469 59.242188 59.964844 59.191406 60.085938 C 59.027344 60.464844 59.035156 60.851562 59.1875 61.230469 C 59.328125 61.59375 59.570312 61.847656 59.910156 61.992188 C 60.25 62.136719 60.601562 62.152344 60.953125 62.035156 C 61.730469 61.785156 62.828125 61.035156 63.578125 60.609375 L 68.683594 57.710938 C 69.664062 57.144531 70.664062 56.226562 71.625 56.261719 C 72.746094 56.304688 73.808594 57.929688 74.328125 59.082031 C 75.191406 60.996094 75.304688 62.84375 74.695312 64.859375 C 74.519531 65.4375 74.347656 65.992188 73.976562 66.46875 C 73.378906 67.222656 71.652344 68.023438 70.777344 68.53125 L 62.925781 73.140625 C 61.972656 73.710938 60.882812 74.203125 60 74.878906 C 59.679688 75.125 59.394531 75.441406 59.273438 75.851562 C 59.167969 76.195312 59.191406 76.550781 59.351562 76.871094 C 59.519531 77.210938 59.824219 77.472656 60.171875 77.585938 C 60.578125 77.71875 61 77.640625 61.386719 77.480469 C 61.796875 77.308594 62.183594 77.011719 62.570312 76.785156 L 65.152344 75.269531 L 71.660156 71.445312 C 73.03125 70.632812 74.378906 69.777344 75.773438 69.003906 C 75.90625 69.199219 76.039062 69.394531 76.15625 69.601562 C 77.082031 71.203125 77.558594 73.769531 77.132812 75.59375 C 76.875 76.695312 76.234375 78.074219 75.457031 78.886719 C 74.808594 79.554688 73.285156 80.382812 72.464844 80.902344 L 66.449219 84.734375 C 65.046875 85.648438 63.625 86.53125 62.210938 87.429688 C 61.507812 87.875 60.671875 88.304688 60.058594 88.878906 C 60.007812 88.929688 59.957031 88.984375 59.910156 89.042969 C 59.863281 89.097656 59.820312 89.160156 59.78125 89.222656 C 59.742188 89.285156 59.707031 89.351562 59.675781 89.421875 C 59.648438 89.492188 59.621094 89.5625 59.601562 89.636719 C 59.585938 89.683594 59.574219 89.734375 59.566406 89.78125 C 59.558594 89.832031 59.550781 89.882812 59.546875 89.933594 C 59.542969 89.980469 59.542969 90.03125 59.542969 90.082031 C 59.546875 90.132812 59.546875 90.183594 59.554688 90.234375 C 59.5625 90.285156 59.570312 90.332031 59.578125 90.382812 C 59.589844 90.433594 59.605469 90.480469 59.621094 90.527344 C 59.636719 90.574219 59.652344 90.621094 59.671875 90.667969 C 59.691406 90.714844 59.714844 90.757812 59.738281 90.800781 C 59.761719 90.84375 59.785156 90.882812 59.8125 90.917969 C 59.839844 90.957031 59.867188 90.992188 59.894531 91.027344 C 59.925781 91.0625 59.957031 91.097656 59.988281 91.128906 C 60.023438 91.160156 60.054688 91.191406 60.09375 91.21875 C 60.128906 91.246094 60.164062 91.273438 60.203125 91.296875 C 60.242188 91.320312 60.277344 91.34375 60.320312 91.363281 C 60.359375 91.382812 60.398438 91.402344 60.441406 91.417969 C 60.484375 91.433594 60.527344 91.445312 60.570312 91.457031 C 60.972656 91.558594 61.363281 91.453125 61.730469 91.277344 C 62.476562 90.917969 63.195312 90.378906 63.902344 89.921875 L 66.996094 87.945312 L 75.875 82.285156 C 75.882812 83.019531 75.914062 83.765625 75.859375 84.5 C 75.699219 86.675781 74.925781 88.898438 73.664062 90.628906 C 71.640625 93.402344 68.773438 94.726562 65.5625 95.164062 C 65.5625 95.203125 65.5625 95.242188 65.566406 95.28125 C 65.644531 96.835938 64.871094 98.484375 63.988281 99.699219 C 62.816406 101.308594 61.246094 102.324219 59.328125 102.570312 C 57.53125 102.804688 55.089844 102.0625 53.675781 100.863281 C 52.238281 99.644531 51.476562 97.855469 51.300781 95.9375 C 51.214844 95.039062 51.253906 94.113281 51.253906 93.210938 L 51.257812 88.828125 L 51.265625 74.628906 L 51.273438 61.601562 L 51.300781 57.742188 C 51.304688 56.84375 51.253906 55.90625 51.359375 55.011719 C 51.378906 54.839844 51.40625 54.667969 51.4375 54.496094 C 51.46875 54.328125 51.503906 54.160156 51.546875 53.992188 C 51.589844 53.824219 51.640625 53.660156 51.691406 53.496094 C 51.746094 53.335938 51.804688 53.171875 51.871094 53.015625 C 51.933594 52.855469 52.003906 52.699219 52.082031 52.546875 C 52.15625 52.394531 52.238281 52.242188 52.320312 52.09375 C 52.40625 51.945312 52.496094 51.804688 52.59375 51.664062 C 52.6875 51.523438 52.789062 51.386719 52.890625 51.253906 C 54.21875 49.542969 56.210938 48.5625 58.269531 48.34375 Z M 58.269531 48.34375 " fill-opacity="1" fill-rule="nonzero"/><path fill="#000000" d="M 40.140625 48.34375 C 41.261719 48.289062 42.316406 48.332031 43.402344 48.660156 C 45.328125 49.246094 47.003906 50.558594 47.972656 52.429688 C 48.457031 53.367188 48.714844 54.367188 48.792969 55.425781 C 48.839844 56.082031 48.808594 56.75 48.816406 57.410156 C 48.832031 58.683594 48.84375 59.960938 48.84375 61.238281 L 48.855469 72.414062 L 48.867188 86.730469 L 48.871094 91.800781 C 48.871094 93.746094 49.023438 95.742188 48.496094 97.628906 C 48.46875 97.730469 48.4375 97.832031 48.402344 97.933594 C 48.371094 98.035156 48.332031 98.136719 48.296875 98.234375 C 48.257812 98.335938 48.214844 98.433594 48.171875 98.53125 C 48.128906 98.628906 48.085938 98.722656 48.039062 98.816406 C 47.988281 98.914062 47.941406 99.007812 47.886719 99.097656 C 47.835938 99.191406 47.78125 99.28125 47.726562 99.371094 C 47.671875 99.460938 47.613281 99.546875 47.550781 99.636719 C 47.492188 99.722656 47.429688 99.804688 47.367188 99.890625 C 47.300781 99.972656 47.234375 100.054688 47.167969 100.132812 C 47.101562 100.214844 47.03125 100.292969 46.960938 100.367188 C 46.886719 100.445312 46.8125 100.519531 46.738281 100.589844 C 46.664062 100.664062 46.585938 100.734375 46.507812 100.800781 C 46.429688 100.871094 46.351562 100.9375 46.269531 101 C 46.1875 101.0625 46.105469 101.125 46.023438 101.1875 C 45.9375 101.246094 45.851562 101.304688 45.765625 101.359375 C 45.679688 101.414062 45.589844 101.46875 45.5 101.519531 C 43.757812 102.511719 41.441406 102.917969 39.542969 102.296875 C 37.671875 101.683594 36.238281 100.207031 35.335938 98.402344 C 34.261719 96.242188 34.433594 94.226562 35.324219 92.058594 C 35.648438 91.261719 36.054688 90.46875 36.578125 89.804688 C 37.050781 89.207031 37.917969 88.671875 38.121094 87.910156 C 38.21875 87.53125 38.164062 87.128906 37.980469 86.789062 C 37.804688 86.457031 37.515625 86.207031 37.160156 86.125 C 36.703125 86.019531 36.246094 86.195312 35.859375 86.453125 C 35.242188 86.867188 34.707031 87.535156 34.273438 88.15625 C 32.917969 90.089844 32.226562 92.125 31.71875 94.457031 L 31.597656 94.410156 C 28.8125 93.386719 26.648438 91.574219 25.355469 88.726562 C 24.164062 86.109375 23.832031 82.875 24.769531 80.113281 C 25.277344 78.613281 26.519531 77.738281 27.832031 77.09375 C 28.164062 76.945312 28.511719 76.8125 28.859375 76.710938 C 30.417969 76.25 32.351562 76.238281 33.796875 77.09375 C 34.535156 78.261719 34.535156 79.332031 35.9375 80.070312 C 36.351562 80.289062 36.804688 80.34375 37.246094 80.171875 C 37.554688 80.054688 37.808594 79.835938 37.9375 79.507812 C 38.460938 78.175781 37.003906 77.503906 36.628906 76.433594 C 36.355469 75.660156 36.480469 74.753906 36.683594 73.976562 C 36.714844 73.867188 36.746094 73.757812 36.78125 73.652344 C 36.8125 73.542969 36.851562 73.4375 36.890625 73.328125 C 36.925781 73.222656 36.96875 73.117188 37.011719 73.011719 C 37.054688 72.910156 37.097656 72.804688 37.144531 72.703125 C 37.195312 72.601562 37.242188 72.5 37.292969 72.398438 C 37.34375 72.296875 37.398438 72.199219 37.453125 72.101562 C 37.511719 72.003906 37.566406 71.90625 37.628906 71.8125 C 37.6875 71.71875 37.746094 71.625 37.8125 71.53125 C 37.875 71.441406 37.941406 71.347656 38.007812 71.257812 C 38.074219 71.171875 38.144531 71.082031 38.214844 70.996094 C 38.285156 70.910156 38.355469 70.828125 38.433594 70.746094 C 38.507812 70.660156 38.582031 70.582031 38.660156 70.503906 C 38.738281 70.421875 38.816406 70.347656 38.898438 70.269531 C 38.976562 70.195312 39.058594 70.121094 39.144531 70.050781 C 39.226562 69.980469 39.3125 69.910156 39.398438 69.84375 C 39.488281 69.773438 39.574219 69.707031 39.664062 69.644531 C 40.449219 69.101562 41.488281 68.589844 41.6875 67.863281 C 41.773438 67.554688 41.667969 67.265625 41.539062 66.96875 C 41.398438 66.648438 41.171875 66.410156 40.851562 66.296875 C 39.9375 65.96875 39.023438 66.601562 38.242188 67.023438 C 38.03125 66.855469 37.851562 66.675781 37.6875 66.457031 C 37.21875 65.84375 37.007812 65.136719 36.941406 64.359375 C 36.675781 61.136719 38.980469 61.078125 39.082031 59.679688 C 39.082031 59.632812 39.085938 59.582031 39.082031 59.535156 C 39.082031 59.488281 39.078125 59.441406 39.074219 59.390625 C 39.066406 59.34375 39.058594 59.296875 39.050781 59.25 C 39.039062 59.203125 39.027344 59.160156 39.011719 59.113281 C 39 59.066406 38.984375 59.023438 38.964844 58.980469 C 38.945312 58.933594 38.925781 58.890625 38.902344 58.851562 C 38.878906 58.808594 38.855469 58.769531 38.832031 58.730469 C 38.804688 58.691406 38.777344 58.652344 38.746094 58.617188 C 38.5 58.308594 38.191406 58.164062 37.816406 58.132812 C 37.191406 58.082031 36.554688 58.519531 36.101562 58.9375 C 34.933594 60.007812 34.234375 61.742188 34.125 63.363281 C 33.96875 65.699219 34.679688 67.324219 36.097656 69.050781 C 34.90625 70.628906 34.296875 71.957031 33.800781 73.902344 C 33.257812 73.71875 32.699219 73.589844 32.132812 73.527344 C 28.722656 73.121094 26.179688 74.347656 23.578125 76.546875 C 22.996094 75.289062 22.847656 73.59375 23.066406 72.21875 C 23.4375 69.851562 24.605469 68.269531 26.414062 66.914062 C 25.488281 65.8125 25.050781 64.015625 25.027344 62.570312 C 25.023438 62.441406 25.027344 62.316406 25.03125 62.191406 C 25.035156 62.0625 25.042969 61.9375 25.050781 61.8125 C 25.0625 61.683594 25.074219 61.558594 25.089844 61.433594 C 25.105469 61.308594 25.125 61.183594 25.148438 61.058594 C 25.167969 60.933594 25.195312 60.8125 25.222656 60.6875 C 25.25 60.566406 25.28125 60.441406 25.3125 60.320312 C 25.347656 60.199219 25.382812 60.078125 25.421875 59.960938 C 25.460938 59.839844 25.503906 59.722656 25.546875 59.605469 C 25.589844 59.484375 25.636719 59.371094 25.6875 59.253906 C 25.738281 59.140625 25.789062 59.027344 25.84375 58.914062 C 25.902344 58.800781 25.957031 58.691406 26.019531 58.582031 C 26.078125 58.472656 26.140625 58.363281 26.207031 58.257812 C 26.273438 58.152344 26.339844 58.046875 26.410156 57.945312 C 26.480469 57.84375 26.550781 57.742188 26.628906 57.644531 C 26.703125 57.546875 26.777344 57.449219 26.859375 57.355469 C 26.9375 57.257812 27.019531 57.167969 27.101562 57.078125 C 28.585938 55.460938 30.613281 54.777344 32.699219 54.753906 C 32.773438 54.46875 32.863281 54.191406 32.964844 53.917969 C 33.066406 53.644531 33.179688 53.378906 33.308594 53.117188 C 33.433594 52.855469 33.574219 52.601562 33.726562 52.355469 C 33.878906 52.109375 34.039062 51.871094 34.214844 51.644531 C 35.683594 49.734375 37.839844 48.601562 40.140625 48.34375 Z M 40.140625 48.34375 " fill-opacity="1" fill-rule="nonzero"/><g fill="#000000" fill-opacity="1"><g transform="translate(83.943286, 100.682802)"><g><path d="M 20.703125 -33.484375 C 24.609375 -33.484375 27.769531 -32.25 30.1875 -29.78125 C 32.601562 -27.320312 33.8125 -24.003906 33.8125 -19.828125 L 33.8125 0 L 28.703125 0 L 28.703125 -19.234375 C 28.703125 -22.328125 27.835938 -24.789062 26.109375 -26.625 C 24.390625 -28.457031 22.097656 -29.375 19.234375 -29.375 C 16.316406 -29.375 13.984375 -28.457031 12.234375 -26.625 C 10.484375 -24.789062 9.609375 -22.328125 9.609375 -19.234375 L 9.609375 0 L 4.4375 0 L 4.4375 -32.9375 L 9.609375 -32.9375 L 9.609375 -27.09375 C 11.847656 -31.351562 15.546875 -33.484375 20.703125 -33.484375 Z M 20.703125 -33.484375 "/></g></g></g><g fill="#000000" fill-opacity="1"><g transform="translate(119.640449, 100.682802)"><g><path d="M 37.1875 -16.46875 C 37.1875 -16.289062 37.171875 -16.066406 37.140625 -15.796875 C 37.117188 -15.523438 37.085938 -15.210938 37.046875 -14.859375 L 7.46875 -14.859375 C 7.78125 -11.585938 9.101562 -8.898438 11.4375 -6.796875 C 13.757812 -4.679688 16.582031 -3.625 19.90625 -3.625 C 22.632812 -3.625 25.0625 -4.410156 27.1875 -5.984375 C 29.320312 -7.554688 30.75 -9.570312 31.46875 -12.03125 L 36.703125 -12.03125 C 35.859375 -8.351562 33.84375 -5.328125 30.65625 -2.953125 C 27.476562 -0.578125 23.867188 0.609375 19.828125 0.609375 C 14.859375 0.609375 10.710938 -1.003906 7.390625 -4.234375 C 4.078125 -7.460938 2.421875 -11.539062 2.421875 -16.46875 C 2.421875 -21.40625 4.054688 -25.484375 7.328125 -28.703125 C 10.640625 -31.890625 14.804688 -33.484375 19.828125 -33.484375 C 24.804688 -33.484375 28.953125 -31.890625 32.265625 -28.703125 C 35.546875 -25.484375 37.1875 -21.40625 37.1875 -16.46875 Z M 28.171875 -26.359375 C 25.929688 -28.285156 23.175781 -29.25 19.90625 -29.25 C 16.632812 -29.25 13.898438 -28.285156 11.703125 -26.359375 C 9.410156 -24.335938 8.039062 -21.828125 7.59375 -18.828125 L 32.265625 -18.828125 C 31.773438 -21.921875 30.410156 -24.429688 28.171875 -26.359375 Z M 28.171875 -26.359375 "/></g></g></g><g fill="#000000" fill-opacity="1"><g transform="translate(156.951044, 100.682802)"><g><path d="M 28.109375 -32.9375 L 33.28125 -32.9375 L 33.28125 -13.578125 C 33.28125 -9.367188 31.957031 -5.941406 29.3125 -3.296875 C 26.664062 -0.691406 23.125 0.609375 18.6875 0.609375 C 14.25 0.609375 10.734375 -0.691406 8.140625 -3.296875 C 5.441406 -5.941406 4.09375 -9.367188 4.09375 -13.578125 L 4.09375 -32.9375 L 9.28125 -32.9375 L 9.28125 -13.578125 C 9.28125 -10.578125 10.128906 -8.179688 11.828125 -6.390625 C 13.535156 -4.597656 15.820312 -3.703125 18.6875 -3.703125 C 21.5625 -3.703125 23.847656 -4.597656 25.546875 -6.390625 C 27.253906 -8.179688 28.109375 -10.578125 28.109375 -13.578125 Z M 28.109375 -32.9375 "/></g></g></g><g fill="#000000" fill-opacity="1"><g transform="translate(192.110383, 100.682802)"><g><path d="M 9.609375 -32.9375 L 9.609375 -24.9375 C 11.804688 -30.769531 16.066406 -33.6875 22.390625 -33.6875 L 22.390625 -28.640625 C 18.359375 -28.640625 15.21875 -27.597656 12.96875 -25.515625 C 10.726562 -23.429688 9.609375 -20.484375 9.609375 -16.671875 L 9.609375 0 L 4.4375 0 L 4.4375 -32.9375 Z M 9.609375 -32.9375 "/></g></g></g><g fill="#000000" fill-opacity="1"><g transform="translate(212.748643, 100.682802)"><g><path d="M 19.828125 -33.484375 C 24.804688 -33.484375 28.953125 -31.890625 32.265625 -28.703125 C 35.546875 -25.484375 37.1875 -21.40625 37.1875 -16.46875 C 37.1875 -11.539062 35.546875 -7.460938 32.265625 -4.234375 C 28.992188 -1.003906 24.847656 0.609375 19.828125 0.609375 C 14.859375 0.609375 10.710938 -1.003906 7.390625 -4.234375 C 4.078125 -7.460938 2.421875 -11.539062 2.421875 -16.46875 C 2.421875 -21.40625 4.054688 -25.484375 7.328125 -28.703125 C 10.640625 -31.890625 14.804688 -33.484375 19.828125 -33.484375 Z M 19.828125 -28.984375 C 16.285156 -28.984375 13.375 -27.816406 11.09375 -25.484375 C 8.8125 -23.148438 7.671875 -20.144531 7.671875 -16.46875 C 7.671875 -12.84375 8.8125 -9.84375 11.09375 -7.46875 C 13.375 -5.09375 16.285156 -3.90625 19.828125 -3.90625 C 23.328125 -3.90625 26.21875 -5.09375 28.5 -7.46875 C 30.789062 -9.84375 31.9375 -12.84375 31.9375 -16.46875 C 31.9375 -20.144531 30.789062 -23.148438 28.5 -25.484375 C 26.21875 -27.816406 23.328125 -28.984375 19.828125 -28.984375 Z M 19.828125 -28.984375 "/></g></g></g><g fill="#000000" fill-opacity="1"><g transform="translate(250.126462, 100.682802)"><g><path d="M 17.078125 -5.109375 L 27.96875 -32.9375 L 33.421875 -32.9375 L 20.109375 0 L 13.984375 0 L 0.671875 -32.9375 L 6.125 -32.9375 Z M 17.078125 -5.109375 "/></g></g></g></svg>