<svg xmlns="http://www.w3.org/2000/svg" xmlns:xlink="http://www.w3.org/1999/xlink" width="1024" zoomAndPan="magnify" viewBox="0 0 768 767.999994" height="1024" preserveAspectRatio="xMidYMid meet" version="1.2"><g id="c313c5f66b"><path style=" stroke:none;fill-rule:evenodd;fill:#000000;fill-opacity:1;" d="M 648.414062 29.425781 C 689.996094 29.425781 723.707031 63.152344 723.707031 104.753906 C 723.707031 239.953125 723.707031 522.15625 723.707031 656.296875 C 723.707031 675.890625 715.925781 694.683594 702.078125 708.539062 C 688.226562 722.394531 669.441406 730.179688 649.855469 730.179688 C 513.5 730.179688 224.203125 730.179688 93.121094 730.179688 C 56.085938 730.179688 26.066406 700.144531 26.066406 663.097656 C 26.066406 527.824219 26.066406 224.023438 26.066406 92.316406 C 26.066406 57.582031 54.210938 29.425781 88.929688 29.425781 C 217.492188 29.425781 509.984375 29.425781 648.414062 29.425781 Z M 648.414062 29.425781 "/><path style=" stroke:none;fill-rule:nonzero;fill:#ebebeb;fill-opacity:1;" d="M 670.136719 379.566406 C 670.136719 384.398438 670.019531 389.230469 669.78125 394.058594 C 669.542969 398.886719 669.1875 403.707031 668.714844 408.515625 C 668.242188 413.328125 667.648438 418.125 666.941406 422.90625 C 666.230469 427.6875 665.40625 432.449219 664.464844 437.191406 C 663.519531 441.929688 662.460938 446.644531 661.289062 451.335938 C 660.113281 456.023438 658.824219 460.679688 657.421875 465.308594 C 656.019531 469.933594 654.503906 474.523438 652.878906 479.074219 C 651.25 483.625 649.511719 488.132812 647.660156 492.597656 C 645.8125 497.066406 643.855469 501.484375 641.789062 505.851562 C 639.722656 510.222656 637.550781 514.539062 635.273438 518.800781 C 632.996094 523.066406 630.617188 527.269531 628.132812 531.417969 C 625.648438 535.5625 623.0625 539.644531 620.378906 543.664062 C 617.695312 547.683594 614.914062 551.632812 612.035156 555.515625 C 609.15625 559.398438 606.183594 563.210938 603.117188 566.945312 C 600.054688 570.683594 596.898438 574.34375 593.652344 577.921875 C 590.40625 581.503906 587.078125 585.003906 583.660156 588.421875 C 580.242188 591.839844 576.746094 595.171875 573.164062 598.421875 C 569.585938 601.667969 565.925781 604.824219 562.191406 607.890625 C 558.457031 610.957031 554.648438 613.929688 550.769531 616.808594 C 546.886719 619.6875 542.9375 622.472656 538.917969 625.15625 C 534.902344 627.84375 530.820312 630.425781 526.675781 632.914062 C 522.53125 635.398438 518.328125 637.78125 514.066406 640.058594 C 509.804688 642.335938 505.492188 644.511719 501.125 646.578125 C 496.753906 648.644531 492.339844 650.601562 487.875 652.453125 C 483.410156 654.300781 478.90625 656.039062 474.355469 657.667969 C 469.804688 659.296875 465.21875 660.8125 460.59375 662.214844 C 455.972656 663.621094 451.316406 664.910156 446.628906 666.082031 C 441.941406 667.257812 437.226562 668.316406 432.488281 669.257812 C 427.75 670.203125 422.992188 671.027344 418.210938 671.738281 C 413.429688 672.449219 408.636719 673.039062 403.828125 673.511719 C 399.019531 673.988281 394.203125 674.34375 389.375 674.578125 C 384.550781 674.816406 379.722656 674.933594 374.890625 674.933594 C 370.058594 674.933594 365.226562 674.816406 360.402344 674.578125 C 355.574219 674.34375 350.757812 673.988281 345.949219 673.511719 C 341.140625 673.039062 336.347656 672.449219 331.566406 671.738281 C 326.789062 671.027344 322.027344 670.203125 317.289062 669.257812 C 312.550781 668.316406 307.835938 667.257812 303.148438 666.082031 C 298.460938 664.910156 293.808594 663.621094 289.183594 662.214844 C 284.558594 660.8125 279.972656 659.296875 275.421875 657.667969 C 270.875 656.039062 266.367188 654.300781 261.902344 652.453125 C 257.4375 650.601562 253.023438 648.644531 248.65625 646.578125 C 244.285156 644.511719 239.972656 642.335938 235.710938 640.058594 C 231.449219 637.78125 227.246094 635.398438 223.101562 632.914062 C 218.957031 630.425781 214.875 627.84375 210.859375 625.15625 C 206.839844 622.472656 202.890625 619.6875 199.011719 616.808594 C 195.128906 613.929688 191.320312 610.957031 187.585938 607.890625 C 183.851562 604.824219 180.195312 601.667969 176.613281 598.421875 C 173.03125 595.175781 169.535156 591.839844 166.117188 588.421875 C 162.699219 585.003906 159.371094 581.503906 156.125 577.921875 C 152.878906 574.34375 149.726562 570.683594 146.660156 566.945312 C 143.59375 563.210938 140.621094 559.398438 137.746094 555.515625 C 134.867188 551.632812 132.085938 547.683594 129.398438 543.664062 C 126.714844 539.644531 124.132812 535.5625 121.648438 531.417969 C 119.164062 527.269531 116.78125 523.066406 114.503906 518.800781 C 112.226562 514.539062 110.054688 510.222656 107.988281 505.851562 C 105.921875 501.484375 103.964844 497.066406 102.117188 492.597656 C 100.265625 488.132812 98.527344 483.625 96.902344 479.074219 C 95.273438 474.523438 93.757812 469.933594 92.355469 465.308594 C 90.953125 460.679688 89.664062 456.023438 88.488281 451.335938 C 87.316406 446.644531 86.257812 441.929688 85.316406 437.191406 C 84.371094 432.449219 83.546875 427.6875 82.835938 422.90625 C 82.128906 418.125 81.535156 413.328125 81.0625 408.515625 C 80.589844 403.707031 80.234375 398.886719 79.996094 394.058594 C 79.761719 389.230469 79.640625 384.398438 79.640625 379.566406 C 79.640625 374.730469 79.761719 369.902344 79.996094 365.074219 C 80.234375 360.246094 80.589844 355.425781 81.0625 350.613281 C 81.535156 345.804688 82.128906 341.007812 82.835938 336.226562 C 83.546875 331.445312 84.371094 326.683594 85.316406 321.941406 C 86.257812 317.203125 87.316406 312.484375 88.488281 307.796875 C 89.664062 303.109375 90.953125 298.449219 92.355469 293.824219 C 93.757812 289.199219 95.273438 284.609375 96.902344 280.058594 C 98.527344 275.507812 100.265625 271 102.117188 266.53125 C 103.964844 262.066406 105.921875 257.648438 107.988281 253.277344 C 110.054688 248.910156 112.226562 244.59375 114.503906 240.328125 C 116.78125 236.066406 119.164062 231.863281 121.648438 227.714844 C 124.132812 223.570312 126.714844 219.488281 129.398438 215.46875 C 132.085938 211.449219 134.867188 207.496094 137.746094 203.613281 C 140.621094 199.730469 143.59375 195.921875 146.660156 192.1875 C 149.726562 188.449219 152.878906 184.789062 156.125 181.207031 C 159.371094 177.625 162.699219 174.125 166.117188 170.707031 C 169.535156 167.289062 173.03125 163.957031 176.613281 160.710938 C 180.191406 157.464844 183.851562 154.308594 187.585938 151.242188 C 191.320312 148.175781 195.128906 145.203125 199.011719 142.324219 C 202.890625 139.445312 206.839844 136.660156 210.859375 133.976562 C 214.875 131.289062 218.957031 128.703125 223.101562 126.21875 C 227.246094 123.734375 231.449219 121.351562 235.710938 119.074219 C 239.972656 116.792969 244.285156 114.621094 248.65625 112.554688 C 253.023438 110.488281 257.4375 108.53125 261.902344 106.679688 C 266.367188 104.832031 270.875 103.089844 275.421875 101.460938 C 279.972656 99.835938 284.558594 98.320312 289.183594 96.914062 C 293.808594 95.511719 298.460938 94.222656 303.148438 93.046875 C 307.835938 91.875 312.550781 90.816406 317.289062 89.871094 C 322.027344 88.929688 326.789062 88.101562 331.566406 87.394531 C 336.347656 86.683594 341.140625 86.09375 345.949219 85.617188 C 350.757812 85.144531 355.574219 84.789062 360.402344 84.550781 C 365.226562 84.316406 370.058594 84.195312 374.890625 84.195312 C 379.722656 84.195312 384.550781 84.316406 389.375 84.550781 C 394.203125 84.789062 399.019531 85.144531 403.828125 85.617188 C 408.636719 86.09375 413.429688 86.683594 418.210938 87.394531 C 422.992188 88.101562 427.75 88.929688 432.488281 89.871094 C 437.226562 90.816406 441.941406 91.875 446.628906 93.046875 C 451.316406 94.222656 455.972656 95.511719 460.59375 96.914062 C 465.21875 98.320312 469.804688 99.835938 474.355469 101.460938 C 478.90625 103.089844 483.410156 104.832031 487.875 106.679688 C 492.339844 108.53125 496.753906 110.488281 501.125 112.554688 C 505.492188 114.621094 509.804688 116.792969 514.066406 119.074219 C 518.328125 121.351562 522.53125 123.734375 526.675781 126.21875 C 530.820312 128.703125 534.902344 131.289062 538.917969 133.976562 C 542.9375 136.660156 546.886719 139.445312 550.769531 142.324219 C 554.648438 145.203125 558.457031 148.175781 562.191406 151.242188 C 565.925781 154.308594 569.585938 157.464844 573.164062 160.710938 C 576.746094 163.957031 580.242188 167.289062 583.660156 170.707031 C 587.078125 174.125 590.40625 177.625 593.652344 181.207031 C 596.898438 184.789062 600.054688 188.449219 603.117188 192.1875 C 606.183594 195.921875 609.15625 199.730469 612.035156 203.613281 C 614.914062 207.496094 617.695312 211.449219 620.378906 215.46875 C 623.0625 219.488281 625.648438 223.570312 628.132812 227.714844 C 630.617188 231.863281 632.996094 236.066406 635.273438 240.328125 C 637.550781 244.59375 639.722656 248.910156 641.789062 253.277344 C 643.855469 257.648438 645.8125 262.066406 647.664062 266.53125 C 649.511719 271 651.25 275.507812 652.878906 280.058594 C 654.503906 284.609375 656.019531 289.199219 657.421875 293.824219 C 658.824219 298.449219 660.113281 303.109375 661.289062 307.796875 C 662.460938 312.484375 663.519531 317.203125 664.464844 321.941406 C 665.40625 326.683594 666.230469 331.445312 666.941406 336.226562 C 667.648438 341.007812 668.242188 345.804688 668.714844 350.613281 C 669.1875 355.425781 669.542969 360.246094 669.78125 365.074219 C 670.019531 369.902344 670.136719 374.730469 670.136719 379.566406 Z M 670.136719 379.566406 "/><path style=" stroke:none;fill-rule:evenodd;fill:#000000;fill-opacity:1;" d="M 385.988281 378 C 386.742188 378.667969 398.316406 388.78125 411.25 394.53125 C 414.195312 395.84375 429.558594 398.386719 436.796875 397.757812 C 438.691406 397.59375 440.363281 398.996094 440.527344 400.894531 C 440.695312 402.789062 439.289062 404.460938 437.394531 404.628906 C 429.1875 405.339844 411.792969 402.320312 408.449219 400.835938 C 395.460938 395.058594 385.464844 387.144531 381.90625 383.703125 C 381.09375 382.914062 380.554688 382.289062 380.28125 381.902344 L 379.78125 381 L 379.542969 380.109375 C 379.285156 378.222656 380.605469 376.484375 382.492188 376.226562 C 383.953125 376.027344 385.328125 376.777344 385.988281 378 Z M 385.988281 378 "/><path style=" stroke:none;fill-rule:evenodd;fill:#000000;fill-opacity:1;" d="M 374.890625 268.976562 L 374.890625 351.023438 C 374.890625 373.667969 356.511719 392.046875 333.882812 392.046875 L 251.871094 392.046875 C 229.238281 392.046875 210.863281 373.667969 210.863281 351.023438 L 210.863281 268.976562 C 210.863281 246.335938 229.238281 227.953125 251.871094 227.953125 L 333.882812 227.953125 C 356.511719 227.953125 374.890625 246.335938 374.890625 268.976562 Z M 374.890625 268.976562 "/><path style=" stroke:none;fill-rule:evenodd;fill:#000000;fill-opacity:1;" d="M 434.519531 421.433594 C 437.933594 423.050781 440.851562 425.777344 442.667969 429.417969 C 446.988281 438.058594 443.480469 448.582031 434.84375 452.902344 L 430.128906 454.476562 L 425.179688 454.679688 L 419.132812 453 L 412.507812 448.660156 C 392.847656 433.238281 305.578125 349.917969 298.902344 340.679688 C 293.246094 332.847656 295.007812 321.898438 302.835938 316.242188 C 310.660156 310.582031 321.605469 312.347656 327.261719 320.175781 C 333.523438 328.839844 415.667969 406.652344 434.097656 421.113281 C 434.226562 421.210938 434.371094 421.324219 434.519531 421.433594 Z M 434.519531 421.433594 "/><path style=" stroke:none;fill-rule:evenodd;fill:#000000;fill-opacity:1;" d="M 365.816406 406.628906 C 364.308594 405.46875 364.027344 403.300781 365.1875 401.792969 C 366.347656 400.28125 368.511719 400 370.023438 401.160156 C 375.199219 405.144531 378.328125 412.339844 380.105469 419.933594 C 382.445312 429.953125 382.40625 440.585938 383.179688 442.90625 C 383.78125 444.710938 382.800781 446.667969 381 447.269531 C 379.191406 447.871094 377.238281 446.890625 376.636719 445.085938 C 375.84375 442.703125 375.792969 431.792969 373.390625 421.5 C 372 415.550781 369.871094 409.746094 365.816406 406.628906 Z M 365.816406 406.628906 "/><path style=" stroke:none;fill-rule:evenodd;fill:#000000;fill-opacity:1;" d="M 396.863281 389.445312 C 398.023438 390.453125 398.398438 392.152344 397.683594 393.589844 L 397.253906 394.246094 L 396.652344 394.816406 L 395.332031 395.414062 L 393.964844 395.433594 L 392.671875 394.90625 L 391.792969 394.125 C 389.730469 392.027344 379.367188 381.003906 375.605469 375.554688 C 367.472656 363.773438 367.945312 352.402344 367.75 345.152344 C 367.699219 343.253906 369.203125 341.667969 371.105469 341.617188 C 373.007812 341.566406 374.59375 343.070312 374.644531 344.972656 C 374.8125 351.3125 374.164062 361.324219 381.28125 371.636719 C 384.859375 376.820312 394.742188 387.292969 396.707031 389.285156 Z M 396.863281 389.445312 "/><path style=" stroke:none;fill-rule:evenodd;fill:#000000;fill-opacity:1;" d="M 318.582031 391.789062 C 316.984375 391.988281 315.417969 391.039062 314.886719 389.457031 L 314.726562 388.03125 L 315.101562 386.769531 L 315.933594 385.730469 L 317.253906 385.035156 L 318.539062 384.886719 C 321.648438 384.769531 337.75 384.644531 346.945312 386.800781 C 361.085938 390.117188 377.390625 407.125 377.390625 407.125 C 378.699219 408.503906 378.640625 410.691406 377.257812 412 C 375.878906 413.308594 373.695312 413.25 372.386719 411.867188 C 372.386719 411.867188 357.992188 396.476562 345.371094 393.515625 C 336.773438 391.496094 321.703125 391.667969 318.796875 391.777344 Z M 318.582031 391.789062 "/><path style=" stroke:none;fill-rule:evenodd;fill:#000000;fill-opacity:1;" d="M 538.914062 437.445312 L 538.914062 519.488281 C 538.914062 542.132812 520.539062 560.511719 497.90625 560.511719 L 415.894531 560.511719 C 393.261719 560.511719 374.886719 542.132812 374.886719 519.488281 L 374.886719 437.445312 C 374.886719 414.800781 393.261719 396.421875 415.894531 396.421875 L 497.90625 396.421875 C 520.539062 396.421875 538.914062 414.800781 538.914062 437.445312 Z M 538.914062 437.445312 "/></g></svg>