<svg xmlns="http://www.w3.org/2000/svg" xmlns:xlink="http://www.w3.org/1999/xlink" width="1024" zoomAndPan="magnify" viewBox="0 0 768 767.999994" height="1024" preserveAspectRatio="xMidYMid meet" version="1.2"><g id="1100e127df"><path style=" stroke:none;fill-rule:evenodd;fill:#000000;fill-opacity:1;" d="M 667.136719 19.953125 C 710.515625 19.953125 745.679688 55.121094 745.679688 98.503906 C 745.679688 239.484375 745.679688 533.757812 745.679688 673.636719 C 745.679688 694.070312 737.5625 713.664062 723.117188 728.113281 C 708.667969 742.5625 689.074219 750.679688 668.644531 750.679688 C 526.414062 750.679688 224.648438 750.679688 87.917969 750.679688 C 49.289062 750.679688 17.976562 719.359375 17.976562 680.730469 C 17.976562 539.671875 17.976562 222.875 17.976562 85.535156 C 17.976562 49.3125 47.332031 19.953125 83.546875 19.953125 C 217.648438 19.953125 522.746094 19.953125 667.136719 19.953125 Z M 667.136719 19.953125 "/><path style=" stroke:none;fill-rule:nonzero;fill:#ffffff;fill-opacity:1;" d="M 689.800781 385.070312 C 689.800781 390.109375 689.675781 395.148438 689.429688 400.183594 C 689.179688 405.21875 688.808594 410.242188 688.316406 415.257812 C 687.820312 420.277344 687.207031 425.277344 686.464844 430.261719 C 685.726562 435.25 684.863281 440.214844 683.882812 445.15625 C 682.898438 450.101562 681.792969 455.019531 680.570312 459.910156 C 679.34375 464.796875 678 469.65625 676.539062 474.476562 C 675.074219 479.300781 673.496094 484.085938 671.796875 488.832031 C 670.097656 493.578125 668.285156 498.28125 666.355469 502.9375 C 664.425781 507.59375 662.386719 512.199219 660.230469 516.757812 C 658.074219 521.316406 655.808594 525.816406 653.433594 530.261719 C 651.058594 534.707031 648.574219 539.089844 645.984375 543.414062 C 643.390625 547.738281 640.695312 551.996094 637.898438 556.1875 C 635.097656 560.378906 632.195312 564.496094 629.191406 568.546875 C 626.191406 572.59375 623.089844 576.566406 619.894531 580.464844 C 616.695312 584.359375 613.40625 588.175781 610.019531 591.910156 C 606.636719 595.644531 603.160156 599.296875 599.597656 602.859375 C 596.03125 606.425781 592.382812 609.898438 588.648438 613.285156 C 584.914062 616.667969 581.097656 619.960938 577.203125 623.160156 C 573.308594 626.355469 569.335938 629.457031 565.285156 632.460938 C 561.238281 635.460938 557.117188 638.363281 552.929688 641.164062 C 548.738281 643.964844 544.480469 646.660156 540.15625 649.253906 C 535.835938 651.84375 531.449219 654.328125 527.003906 656.703125 C 522.558594 659.078125 518.058594 661.34375 513.503906 663.5 C 508.945312 665.65625 504.339844 667.699219 499.683594 669.628906 C 495.027344 671.554688 490.328125 673.371094 485.582031 675.066406 C 480.835938 676.765625 476.050781 678.347656 471.226562 679.808594 C 466.40625 681.273438 461.550781 682.617188 456.660156 683.84375 C 451.769531 685.066406 446.855469 686.171875 441.910156 687.152344 C 436.96875 688.136719 432.003906 689 427.019531 689.738281 C 422.03125 690.476562 417.03125 691.09375 412.015625 691.589844 C 407 692.082031 401.976562 692.453125 396.941406 692.703125 C 391.90625 692.949219 386.871094 693.074219 381.828125 693.074219 C 376.789062 693.074219 371.753906 692.949219 366.71875 692.703125 C 361.683594 692.453125 356.660156 692.082031 351.644531 691.589844 C 346.628906 691.09375 341.625 690.476562 336.640625 689.738281 C 331.65625 689 326.691406 688.136719 321.746094 687.152344 C 316.804688 686.171875 311.886719 685.066406 307 683.84375 C 302.109375 682.617188 297.253906 681.273438 292.429688 679.808594 C 287.609375 678.347656 282.824219 676.765625 278.078125 675.066406 C 273.332031 673.371094 268.632812 671.554688 263.976562 669.628906 C 259.316406 667.699219 254.710938 665.65625 250.15625 663.5 C 245.597656 661.34375 241.097656 659.078125 236.652344 656.703125 C 232.207031 654.328125 227.824219 651.84375 223.5 649.253906 C 219.179688 646.660156 214.921875 643.964844 210.730469 641.164062 C 206.539062 638.363281 202.421875 635.460938 198.371094 632.460938 C 194.324219 629.457031 190.351562 626.355469 186.457031 623.160156 C 182.558594 619.960938 178.746094 616.667969 175.011719 613.285156 C 171.277344 609.898438 167.625 606.425781 164.0625 602.859375 C 160.5 599.296875 157.023438 595.648438 153.640625 591.910156 C 150.253906 588.175781 146.964844 584.359375 143.765625 580.464844 C 140.570312 576.566406 137.46875 572.59375 134.464844 568.546875 C 131.464844 564.496094 128.5625 560.378906 125.761719 556.1875 C 122.960938 551.996094 120.265625 547.738281 117.675781 543.414062 C 115.085938 539.089844 112.601562 534.707031 110.226562 530.261719 C 107.847656 525.816406 105.582031 521.316406 103.429688 516.757812 C 101.273438 512.199219 99.230469 507.59375 97.304688 502.9375 C 95.375 498.28125 93.5625 493.578125 91.863281 488.832031 C 90.164062 484.085938 88.585938 479.300781 87.121094 474.476562 C 85.65625 469.65625 84.3125 464.796875 83.089844 459.910156 C 81.863281 455.019531 80.761719 450.101562 79.777344 445.15625 C 78.792969 440.214844 77.933594 435.25 77.195312 430.261719 C 76.453125 425.277344 75.835938 420.277344 75.34375 415.257812 C 74.847656 410.242188 74.476562 405.21875 74.230469 400.183594 C 73.984375 395.148438 73.859375 390.109375 73.859375 385.070312 C 73.859375 380.027344 73.984375 374.992188 74.230469 369.957031 C 74.476562 364.921875 74.847656 359.898438 75.34375 354.878906 C 75.835938 349.863281 76.453125 344.863281 77.195312 339.875 C 77.933594 334.890625 78.792969 329.925781 79.777344 324.980469 C 80.761719 320.039062 81.863281 315.121094 83.089844 310.230469 C 84.3125 305.339844 85.65625 300.484375 87.121094 295.660156 C 88.585938 290.835938 90.164062 286.054688 91.863281 281.308594 C 93.5625 276.5625 95.375 271.859375 97.304688 267.203125 C 99.230469 262.546875 101.273438 257.9375 103.429688 253.382812 C 105.582031 248.824219 107.847656 244.324219 110.226562 239.878906 C 112.601562 235.433594 115.085938 231.046875 117.675781 226.726562 C 120.265625 222.402344 122.960938 218.144531 125.761719 213.953125 C 128.5625 209.761719 131.464844 205.640625 134.464844 201.59375 C 137.46875 197.542969 140.570312 193.570312 143.765625 189.675781 C 146.964844 185.777344 150.253906 181.964844 153.640625 178.226562 C 157.023438 174.492188 160.5 170.84375 164.0625 167.277344 C 167.625 163.714844 171.277344 160.238281 175.011719 156.855469 C 178.746094 153.46875 182.558594 150.179688 186.457031 146.980469 C 190.351562 143.78125 194.324219 140.683594 198.371094 137.679688 C 202.421875 134.675781 206.539062 131.777344 210.730469 128.976562 C 214.921875 126.175781 219.179688 123.480469 223.5 120.886719 C 227.824219 118.296875 232.207031 115.8125 236.652344 113.4375 C 241.097656 111.058594 245.597656 108.792969 250.15625 106.640625 C 254.710938 104.484375 259.316406 102.441406 263.976562 100.511719 C 268.632812 98.582031 273.332031 96.769531 278.078125 95.070312 C 282.824219 93.375 287.609375 91.792969 292.429688 90.328125 C 297.253906 88.867188 302.109375 87.523438 307 86.296875 C 311.886719 85.074219 316.804688 83.96875 321.746094 82.984375 C 326.691406 82.003906 331.65625 81.140625 336.640625 80.402344 C 341.625 79.660156 346.628906 79.042969 351.644531 78.550781 C 356.660156 78.054688 361.683594 77.6875 366.71875 77.4375 C 371.753906 77.191406 376.789062 77.066406 381.828125 77.066406 C 386.871094 77.066406 391.90625 77.191406 396.941406 77.4375 C 401.976562 77.6875 407 78.054688 412.015625 78.550781 C 417.03125 79.042969 422.03125 79.660156 427.019531 80.402344 C 432.003906 81.140625 436.96875 82.003906 441.910156 82.984375 C 446.855469 83.96875 451.769531 85.074219 456.660156 86.296875 C 461.550781 87.523438 466.40625 88.867188 471.226562 90.328125 C 476.050781 91.792969 480.835938 93.375 485.582031 95.070312 C 490.328125 96.769531 495.027344 98.582031 499.683594 100.511719 C 504.339844 102.441406 508.945312 104.484375 513.503906 106.640625 C 518.058594 108.792969 522.558594 111.058594 527.003906 113.4375 C 531.449219 115.8125 535.835938 118.296875 540.15625 120.886719 C 544.480469 123.480469 548.738281 126.175781 552.929688 128.976562 C 557.117188 131.777344 561.238281 134.675781 565.285156 137.679688 C 569.335938 140.683594 573.308594 143.78125 577.203125 146.980469 C 581.097656 150.179688 584.914062 153.46875 588.648438 156.855469 C 592.382812 160.238281 596.03125 163.714844 599.597656 167.277344 C 603.160156 170.84375 606.636719 174.492188 610.019531 178.226562 C 613.40625 181.964844 616.695312 185.777344 619.894531 189.675781 C 623.089844 193.570312 626.191406 197.542969 629.191406 201.59375 C 632.195312 205.640625 635.097656 209.761719 637.898438 213.953125 C 640.695312 218.144531 643.390625 222.402344 645.984375 226.726562 C 648.574219 231.046875 651.058594 235.433594 653.433594 239.878906 C 655.808594 244.324219 658.074219 248.824219 660.230469 253.382812 C 662.386719 257.9375 664.425781 262.546875 666.355469 267.203125 C 668.285156 271.859375 670.097656 276.5625 671.796875 281.308594 C 673.496094 286.054688 675.074219 290.835938 676.539062 295.660156 C 678 300.484375 679.34375 305.339844 680.570312 310.230469 C 681.792969 315.121094 682.898438 320.039062 683.882812 324.980469 C 684.863281 329.925781 685.726562 334.890625 686.464844 339.875 C 687.207031 344.863281 687.820312 349.863281 688.316406 354.878906 C 688.808594 359.898438 689.179688 364.921875 689.429688 369.957031 C 689.675781 374.992188 689.800781 380.027344 689.800781 385.070312 Z M 689.800781 385.070312 "/><path style=" stroke:none;fill-rule:evenodd;fill:#000000;fill-opacity:1;" d="M 393.40625 383.4375 C 394.195312 384.132812 406.265625 394.679688 419.757812 400.675781 C 422.832031 402.042969 438.855469 404.695312 446.402344 404.039062 C 448.382812 403.867188 450.125 405.332031 450.296875 407.308594 C 450.46875 409.289062 449.003906 411.03125 447.027344 411.203125 C 438.46875 411.949219 420.320312 408.800781 416.835938 407.246094 C 403.289062 401.226562 392.859375 392.972656 389.152344 389.382812 C 388.300781 388.558594 387.738281 387.90625 387.457031 387.507812 L 386.933594 386.566406 L 386.683594 385.636719 C 386.414062 383.667969 387.792969 381.855469 389.761719 381.585938 C 391.285156 381.378906 392.714844 382.160156 393.40625 383.4375 Z M 393.40625 383.4375 "/><path style=" stroke:none;fill-rule:evenodd;fill:#000000;fill-opacity:1;" d="M 381.828125 269.75 L 381.828125 355.308594 C 381.828125 378.917969 362.660156 398.085938 339.054688 398.085938 L 253.507812 398.085938 C 229.902344 398.085938 210.734375 378.917969 210.734375 355.308594 L 210.734375 269.75 C 210.734375 246.140625 229.902344 226.972656 253.507812 226.972656 L 339.054688 226.972656 C 362.660156 226.972656 381.828125 246.140625 381.828125 269.75 Z M 381.828125 269.75 "/><path style=" stroke:none;fill-rule:evenodd;fill:#000000;fill-opacity:1;" d="M 444.027344 428.726562 C 447.589844 430.414062 450.632812 433.257812 452.53125 437.054688 C 457.035156 446.066406 453.378906 457.039062 444.367188 461.542969 L 439.449219 463.1875 L 434.289062 463.394531 L 427.976562 461.644531 L 421.066406 457.121094 C 400.5625 441.039062 309.53125 354.15625 302.566406 344.519531 C 296.667969 336.355469 298.503906 324.9375 306.671875 319.035156 C 314.832031 313.136719 326.25 314.976562 332.152344 323.136719 C 338.679688 332.175781 424.363281 413.316406 443.589844 428.394531 C 443.722656 428.496094 443.875 428.613281 444.027344 428.726562 Z M 444.027344 428.726562 "/><path style=" stroke:none;fill-rule:evenodd;fill:#000000;fill-opacity:1;" d="M 372.367188 413.289062 C 370.792969 412.082031 370.5 409.820312 371.707031 408.246094 C 372.917969 406.671875 375.179688 406.378906 376.753906 407.589844 C 382.152344 411.742188 385.417969 419.242188 387.269531 427.164062 C 389.710938 437.613281 389.667969 448.699219 390.476562 451.117188 C 391.101562 453 390.082031 455.039062 388.203125 455.667969 C 386.316406 456.296875 384.28125 455.277344 383.652344 453.394531 C 382.824219 450.90625 382.773438 439.53125 380.265625 428.800781 C 378.816406 422.59375 376.597656 416.542969 372.367188 413.289062 Z M 372.367188 413.289062 "/><path style=" stroke:none;fill-rule:evenodd;fill:#000000;fill-opacity:1;" d="M 404.753906 395.371094 C 405.957031 396.421875 406.355469 398.195312 405.605469 399.691406 L 405.160156 400.378906 L 404.527344 400.972656 L 403.152344 401.597656 L 401.726562 401.617188 L 400.378906 401.066406 L 399.460938 400.25 C 397.308594 398.066406 386.5 386.570312 382.578125 380.886719 C 374.09375 368.601562 374.585938 356.742188 374.382812 349.1875 C 374.332031 347.203125 375.898438 345.550781 377.882812 345.496094 C 379.867188 345.445312 381.519531 347.011719 381.574219 348.996094 C 381.75 355.609375 381.074219 366.046875 388.496094 376.800781 C 392.226562 382.207031 402.539062 393.125 404.585938 395.207031 Z M 404.753906 395.371094 "/><path style=" stroke:none;fill-rule:evenodd;fill:#000000;fill-opacity:1;" d="M 323.09375 397.816406 C 321.429688 398.023438 319.792969 397.03125 319.242188 395.382812 L 319.074219 393.894531 L 319.464844 392.582031 L 320.335938 391.496094 L 321.710938 390.773438 L 323.054688 390.617188 C 326.292969 390.496094 343.089844 390.367188 352.679688 392.613281 C 367.433594 396.074219 384.4375 413.804688 384.4375 413.804688 C 385.800781 415.246094 385.742188 417.527344 384.300781 418.890625 C 382.863281 420.257812 380.585938 420.195312 379.21875 418.753906 C 379.21875 418.753906 364.203125 402.703125 351.039062 399.617188 C 342.070312 397.511719 326.351562 397.691406 323.320312 397.804688 Z M 323.09375 397.816406 "/><path style=" stroke:none;fill-rule:evenodd;fill:#000000;fill-opacity:1;" d="M 552.921875 445.421875 L 552.921875 530.980469 C 552.921875 554.589844 533.753906 573.757812 510.148438 573.757812 L 424.601562 573.757812 C 400.996094 573.757812 381.828125 554.589844 381.828125 530.980469 L 381.828125 445.421875 C 381.828125 421.8125 400.996094 402.644531 424.601562 402.644531 L 510.148438 402.644531 C 533.753906 402.644531 552.921875 421.8125 552.921875 445.421875 Z M 552.921875 445.421875 "/></g></svg>