<?xml version="1.0" encoding="UTF-8" standalone="no"?>
<!DOCTYPE svg PUBLIC "-//W3C//DTD SVG 1.1//EN" "http://www.w3.org/Graphics/SVG/1.1/DTD/svg11.dtd">
<svg width="100%" height="100%" viewBox="0 0 2481 2481" version="1.1" xmlns="http://www.w3.org/2000/svg" xmlns:xlink="http://www.w3.org/1999/xlink" xml:space="preserve" xmlns:serif="http://www.serif.com/" style="fill-rule:evenodd;clip-rule:evenodd;stroke-linejoin:round;stroke-miterlimit:2;">
    <g transform="matrix(7.56619,0,0,8.00886,-1135.93,-694.663)">
        <path d="M362.908,88.243C364.11,88.13 365.314,88.059 366.521,88.028C367.728,87.998 368.934,88.008 370.141,88.059C371.347,88.11 372.55,88.202 373.75,88.334C374.95,88.466 376.144,88.639 377.332,88.852C378.52,89.065 379.7,89.318 380.871,89.611C382.042,89.904 383.202,90.236 384.351,90.608C385.5,90.979 386.634,91.389 387.755,91.837C388.876,92.285 389.981,92.77 391.069,93.293C402.161,98.607 412.393,108.827 416.401,120.649C416.866,122.022 417.331,123.98 416.469,125.279C413.742,129.388 378.104,145.03 371.058,150.839C370.491,151.308 369.984,151.835 369.537,152.419C369.09,153.003 368.713,153.63 368.407,154.299C367.442,156.437 367.481,158.604 368.375,160.754C369.22,162.783 370.662,164.21 372.691,165.027C374.723,165.845 376.801,165.922 378.898,165.28C383.52,163.867 390.077,159.637 394.525,157.241L424.954,140.934C430.781,137.757 436.749,132.582 442.453,132.791C449.134,133.036 455.475,142.164 458.567,148.653C463.699,159.426 464.374,169.827 460.738,181.17C459.695,184.423 458.681,187.539 456.458,190.209C452.911,194.469 442.615,198.959 437.408,201.819L390.647,227.767C384.984,230.974 378.48,233.731 373.236,237.538C371.325,238.924 369.614,240.709 368.886,243.007C368.273,244.939 368.404,246.939 369.352,248.741C370.366,250.667 372.186,252.134 374.258,252.78C376.658,253.53 379.188,253.079 381.477,252.178C383.92,251.217 386.234,249.542 388.533,248.259L403.901,239.743L442.659,218.229C450.827,213.646 458.874,208.84 467.166,204.478C467.952,205.581 468.742,206.69 469.449,207.846C474.962,216.869 477.789,231.299 475.254,241.572C473.726,247.763 469.925,255.527 465.277,260.089C461.433,263.861 452.351,268.501 447.466,271.442L411.637,292.987C403.284,298.137 394.814,303.109 386.402,308.162C382.216,310.676 377.229,313.096 373.585,316.323C373.263,316.604 372.962,316.906 372.682,317.229C372.403,317.552 372.147,317.894 371.916,318.253C371.684,318.612 371.479,318.986 371.3,319.374C371.121,319.762 370.97,320.161 370.847,320.57C370.766,320.843 370.7,321.119 370.648,321.398C370.596,321.677 370.558,321.958 370.535,322.241C370.512,322.524 370.503,322.808 370.51,323.092C370.516,323.376 370.537,323.659 370.572,323.941C370.608,324.223 370.658,324.502 370.722,324.779C370.787,325.056 370.865,325.328 370.958,325.597C371.051,325.865 371.157,326.128 371.277,326.386C371.396,326.643 371.529,326.894 371.675,327.138C371.808,327.366 371.953,327.587 372.109,327.8C372.264,328.013 372.43,328.218 372.606,328.415C372.782,328.612 372.968,328.799 373.163,328.978C373.358,329.156 373.561,329.324 373.772,329.482C373.984,329.64 374.203,329.787 374.429,329.923C374.656,330.06 374.888,330.184 375.127,330.297C375.366,330.41 375.609,330.51 375.858,330.599C376.107,330.688 376.359,330.764 376.616,330.827C379.009,331.402 381.335,330.79 383.521,329.805C387.986,327.793 392.262,324.747 396.456,322.183L414.885,311.074L467.766,279.208C467.816,283.353 468.006,287.54 467.682,291.675C466.721,303.921 462.12,316.432 454.594,326.172C442.551,341.758 425.472,349.211 406.351,351.677C406.36,351.896 406.364,352.115 406.376,352.333C406.841,361.098 402.239,370.373 396.976,377.199C389.992,386.259 380.645,391.969 369.212,393.363C358.528,394.665 343.989,390.501 335.559,383.747C326.997,376.888 322.462,366.833 321.403,356.039C320.907,350.987 321.13,345.768 321.133,340.691L321.156,316.02L321.21,236.136L321.259,162.831L321.416,141.126C321.428,136.051 321.136,130.782 321.765,125.744C321.883,124.778 322.036,123.817 322.223,122.862C322.41,121.907 322.63,120.96 322.885,120.021C323.14,119.082 323.427,118.153 323.748,117.234C324.069,116.315 324.422,115.409 324.808,114.515C325.193,113.622 325.61,112.743 326.059,111.88C326.507,111.016 326.986,110.169 327.495,109.34C328.004,108.51 328.541,107.7 329.108,106.909C329.675,106.118 330.269,105.348 330.891,104.599C338.797,94.99 350.653,89.474 362.908,88.243Z" style="fill-rule:nonzero;"/>
    </g>
    <g transform="matrix(7.56619,0,0,8.00886,-1135.93,-694.663)">
        <path d="M254.939,88.244C261.621,87.926 267.895,88.158 274.378,90.022C285.852,93.322 295.813,100.692 301.597,111.231C304.488,116.498 306.01,122.126 306.472,128.093C306.758,131.785 306.578,135.535 306.612,139.238C306.716,146.425 306.775,153.612 306.789,160.799L306.86,223.68L306.92,304.231L306.941,332.748C306.949,343.699 307.846,354.924 304.719,365.547C304.546,366.126 304.359,366.7 304.158,367.269C303.957,367.838 303.742,368.402 303.513,368.961C303.284,369.52 303.041,370.073 302.785,370.62C302.529,371.167 302.26,371.707 301.977,372.241C301.694,372.774 301.399,373.301 301.09,373.82C300.781,374.339 300.46,374.851 300.126,375.354C299.792,375.857 299.446,376.352 299.088,376.838C298.73,377.324 298.36,377.801 297.978,378.269C297.597,378.737 297.204,379.196 296.8,379.645C296.395,380.094 295.98,380.532 295.555,380.96C295.129,381.389 294.693,381.806 294.247,382.213C293.8,382.62 293.344,383.015 292.879,383.4C292.413,383.784 291.938,384.157 291.454,384.518C290.97,384.879 290.477,385.228 289.976,385.565C289.475,385.902 288.965,386.226 288.448,386.537C287.931,386.849 287.406,387.148 286.874,387.434C276.495,393.029 262.702,395.314 251.393,391.813C240.24,388.361 231.704,380.059 226.337,369.893C219.927,357.751 220.953,346.402 226.252,334.2C228.192,329.733 230.606,325.268 233.738,321.527C236.553,318.164 241.705,315.147 242.908,310.86C243.508,308.723 243.17,306.477 242.087,304.557C241.032,302.684 239.318,301.287 237.2,300.822C234.466,300.221 231.747,301.218 229.455,302.665C225.762,304.997 222.588,308.754 219.998,312.244C211.919,323.133 207.811,334.574 204.78,347.695L204.065,347.449C187.484,341.682 174.578,331.488 166.878,315.459C159.804,300.735 157.819,282.533 163.391,266.989C166.416,258.548 173.817,253.635 181.629,250.007C183.619,249.168 185.683,248.42 187.765,247.84C197.04,245.259 208.565,245.184 217.155,250.014C221.56,256.573 221.565,262.604 229.907,266.752C232.372,267.978 235.081,268.297 237.698,267.334C239.536,266.658 241.06,265.437 241.822,263.598C244.935,256.084 236.267,252.32 234.029,246.298C232.408,241.936 233.146,236.838 234.362,232.472C234.538,231.855 234.728,231.243 234.931,230.634C235.134,230.025 235.35,229.422 235.579,228.823C235.808,228.224 236.051,227.63 236.307,227.042C236.562,226.453 236.831,225.871 237.112,225.294C237.393,224.717 237.686,224.147 237.993,223.584C238.299,223.02 238.617,222.463 238.948,221.914C239.279,221.364 239.621,220.822 239.975,220.287C240.33,219.752 240.696,219.226 241.073,218.708C241.451,218.189 241.84,217.679 242.24,217.177C242.639,216.676 243.05,216.183 243.472,215.7C243.893,215.217 244.325,214.743 244.768,214.278C245.21,213.813 245.662,213.359 246.125,212.914C246.587,212.469 247.059,212.035 247.541,211.612C248.022,211.188 248.513,210.775 249.012,210.372C249.511,209.97 250.019,209.579 250.536,209.199C251.053,208.818 251.578,208.45 252.111,208.093C256.777,205.028 262.98,202.152 264.167,198.072C264.671,196.339 264.046,194.7 263.269,193.034C262.426,191.226 261.094,189.892 259.179,189.246C253.728,187.408 248.298,190.97 243.634,193.335C242.388,192.396 241.31,191.382 240.332,190.161C237.552,186.693 236.279,182.734 235.898,178.358C234.32,160.226 248.038,159.878 248.631,152.016C248.65,151.747 248.655,151.478 248.648,151.208C248.641,150.939 248.62,150.67 248.587,150.403C248.553,150.136 248.506,149.87 248.447,149.607C248.388,149.344 248.315,149.085 248.23,148.829C248.145,148.573 248.048,148.322 247.939,148.076C247.83,147.829 247.709,147.589 247.576,147.354C247.443,147.119 247.299,146.892 247.144,146.671C246.989,146.451 246.824,146.239 246.648,146.034C245.176,144.296 243.348,143.484 241.114,143.312C237.379,143.025 233.599,145.489 230.892,147.836C223.926,153.876 219.772,163.627 219.122,172.74C218.183,185.887 222.426,195.029 230.865,204.751C223.778,213.623 220.133,221.105 217.188,232.057C213.949,231.004 210.636,230.295 207.249,229.928C186.949,227.643 171.803,234.554 156.295,246.929C152.829,239.855 151.962,230.308 153.252,222.567C155.47,209.257 162.41,200.341 173.186,192.722C167.685,186.534 165.069,176.418 164.925,168.28C164.916,167.568 164.924,166.856 164.949,166.145C164.975,165.433 165.018,164.722 165.079,164.013C165.14,163.304 165.218,162.596 165.313,161.891C165.408,161.185 165.521,160.482 165.651,159.782C165.781,159.082 165.928,158.386 166.093,157.693C166.257,157 166.438,156.312 166.637,155.628C166.835,154.944 167.05,154.265 167.282,153.592C167.513,152.919 167.761,152.252 168.026,151.591C168.291,150.93 168.571,150.275 168.868,149.628C169.165,148.981 169.477,148.342 169.806,147.71C170.134,147.078 170.477,146.455 170.836,145.84C171.195,145.225 171.569,144.619 171.958,144.023C172.347,143.426 172.75,142.84 173.168,142.263C173.585,141.686 174.017,141.12 174.463,140.565C174.908,140.01 175.367,139.465 175.839,138.932C176.312,138.399 176.797,137.879 177.295,137.37C186.129,128.285 198.208,124.437 210.635,124.293C211.078,122.701 211.601,121.136 212.204,119.597C212.807,118.058 213.487,116.555 214.245,115.086C215.002,113.617 215.833,112.191 216.737,110.807C217.642,109.424 218.614,108.09 219.655,106.807C228.405,96.064 241.241,89.689 254.939,88.244Z" style="fill-rule:nonzero;"/>
    </g>
</svg>
